<svg width="24" height="24" viewBox="0 0 24 24" fill="none" xmlns="http://www.w3.org/2000/svg">
<path d="M18.7664 10.0604C17.3917 10.0635 16.0483 9.63533 14.9298 8.83521V14.4205C14.9298 15.455 14.6142 16.4645 14.0238 17.3147C13.4333 18.1648 12.5991 18.8149 11.6306 19.1774C10.662 19.54 9.60603 19.5994 8.60314 19.3431C7.60025 19.0868 6.70046 18.5336 6.01936 17.7553C5.33827 16.9771 4.91649 16.0051 4.8009 14.9768C4.6853 13.9485 4.8915 12.9108 5.38201 12.0013C5.87252 11.0918 6.63172 10.3542 7.55651 9.88537C8.48129 9.41655 9.52168 9.24465 10.5464 9.38529V12.1951C10.0778 12.0482 9.57479 12.0513 9.10927 12.2076C8.64375 12.3639 8.2376 12.6639 7.95329 13.0609C7.66898 13.4578 7.51589 13.9391 7.51902 14.433C7.52214 14.9268 7.68148 15.4019 7.97204 15.7988C8.26259 16.1957 8.67187 16.4895 9.14051 16.6395C9.60916 16.7896 10.1122 16.7896 10.5777 16.6364C11.0432 16.4833 11.4525 16.1864 11.7399 15.7894C12.0273 15.3925 12.1836 14.9112 12.1836 14.4205V3.5H14.9329C14.9298 3.73129 14.9517 3.9657 14.9923 4.19386C15.0891 4.70331 15.286 5.19089 15.5765 5.62221C15.8671 6.05352 16.242 6.42233 16.6763 6.70362C17.298 7.11306 18.026 7.33185 18.7695 7.33185V10.0635L18.7664 10.0604Z" fill="white"/>
</svg>
